{
    "patcher": {
        "fileversion": 1,
        "appversion": {
            "major": 9,
            "minor": 1,
            "revision": 3,
            "architecture": "x64",
            "modernui": 1
        },
        "classnamespace": "box",
        "rect": [ -236.0, -817.0, 1130.0, 314.0 ],
        "boxes": [
            {
                "box": {
                    "id": "obj-11",
                    "linecount": 3,
                    "maxclass": "comment",
                    "numinlets": 1,
                    "numoutlets": 0,
                    "patching_rect": [ 1161.0, 214.0, 151.0, 47.0 ],
                    "text": ", paintrect 0 100 27 127 0, paintarc 7 100 27 120 $7 180 250"
                }
            },
            {
                "box": {
                    "fontname": "Arial Black",
                    "fontsize": 12.0,
                    "id": "obj-1",
                    "maxclass": "comment",
                    "numinlets": 1,
                    "numoutlets": 0,
                    "patching_rect": [ 597.0, 21.0, 184.0, 23.0 ],
                    "text": "Raw Values (uncalibrated)"
                }
            },
            {
                "box": {
                    "fontname": "Arial",
                    "fontsize": 12.0,
                    "id": "obj-5",
                    "maxclass": "newobj",
                    "numinlets": 2,
                    "numoutlets": 1,
                    "outlettype": [ "int" ],
                    "patching_rect": [ 422.0, 177.0, 32.0, 22.0 ],
                    "text": "int"
                }
            },
            {
                "box": {
                    "fontname": "Arial",
                    "fontsize": 12.0,
                    "id": "obj-6",
                    "maxclass": "newobj",
                    "numinlets": 2,
                    "numoutlets": 1,
                    "outlettype": [ "int" ],
                    "patching_rect": [ 264.0, 177.0, 32.0, 22.0 ],
                    "text": "int"
                }
            },
            {
                "box": {
                    "fontname": "Arial",
                    "fontsize": 12.0,
                    "id": "obj-7",
                    "maxclass": "newobj",
                    "numinlets": 2,
                    "numoutlets": 1,
                    "outlettype": [ "int" ],
                    "patching_rect": [ 106.0, 177.0, 32.0, 22.0 ],
                    "text": "int"
                }
            },
            {
                "box": {
                    "fontname": "Arial",
                    "fontsize": 12.0,
                    "id": "obj-8",
                    "maxclass": "newobj",
                    "numinlets": 1,
                    "numoutlets": 3,
                    "outlettype": [ "int", "int", "bang" ],
                    "patching_rect": [ 343.0, 145.0, 98.0, 22.0 ],
                    "text": "t i i b"
                }
            },
            {
                "box": {
                    "fontname": "Arial",
                    "fontsize": 12.0,
                    "id": "obj-9",
                    "maxclass": "newobj",
                    "numinlets": 1,
                    "numoutlets": 3,
                    "outlettype": [ "int", "int", "bang" ],
                    "patching_rect": [ 185.0, 145.0, 98.0, 22.0 ],
                    "text": "t i i b"
                }
            },
            {
                "box": {
                    "fontname": "Arial",
                    "fontsize": 12.0,
                    "id": "obj-10",
                    "maxclass": "newobj",
                    "numinlets": 1,
                    "numoutlets": 3,
                    "outlettype": [ "int", "int", "bang" ],
                    "patching_rect": [ 27.0, 145.0, 98.0, 22.0 ],
                    "text": "t i i b"
                }
            },
            {
                "box": {
                    "fontname": "Arial",
                    "fontsize": 12.0,
                    "id": "obj-13",
                    "maxclass": "newobj",
                    "numinlets": 6,
                    "numoutlets": 1,
                    "outlettype": [ "" ],
                    "patching_rect": [ 343.0, 116.0, 103.0, 22.0 ],
                    "text": "scale 0. 1. 127. 0."
                }
            },
            {
                "box": {
                    "fontname": "Arial",
                    "fontsize": 12.0,
                    "id": "obj-14",
                    "maxclass": "newobj",
                    "numinlets": 6,
                    "numoutlets": 1,
                    "outlettype": [ "" ],
                    "patching_rect": [ 185.0, 116.0, 117.0, 22.0 ],
                    "text": "scale 0. 100. 127. 0."
                }
            },
            {
                "box": {
                    "fontname": "Arial",
                    "fontsize": 12.0,
                    "id": "obj-15",
                    "maxclass": "newobj",
                    "numinlets": 6,
                    "numoutlets": 1,
                    "outlettype": [ "" ],
                    "patching_rect": [ 27.0, 116.0, 107.0, 22.0 ],
                    "text": "scale 0. 50 127. 0."
                }
            },
            {
                "box": {
                    "bgcolor": [ 0.866667, 0.866667, 0.866667, 1.0 ],
                    "fontname": "Arial",
                    "fontsize": 12.0,
                    "format": 6,
                    "htricolor": [ 0.87, 0.82, 0.24, 1.0 ],
                    "id": "obj-17",
                    "maxclass": "flonum",
                    "numinlets": 1,
                    "numoutlets": 2,
                    "outlettype": [ "", "bang" ],
                    "parameter_enable": 0,
                    "patching_rect": [ 26.797386467456818, 86.92810732126236, 40.0, 22.0 ],
                    "textcolor": [ 0.0, 0.0, 0.0, 1.0 ],
                    "tricolor": [ 0.75, 0.75, 0.75, 1.0 ],
                    "triscale": 0.9
                }
            },
            {
                "box": {
                    "bgcolor": [ 0.866667, 0.866667, 0.866667, 1.0 ],
                    "fontname": "Arial",
                    "fontsize": 12.0,
                    "format": 6,
                    "htricolor": [ 0.87, 0.82, 0.24, 1.0 ],
                    "id": "obj-18",
                    "maxclass": "flonum",
                    "numinlets": 1,
                    "numoutlets": 2,
                    "outlettype": [ "", "bang" ],
                    "parameter_enable": 0,
                    "patching_rect": [ 185.0, 82.0, 40.0, 22.0 ],
                    "textcolor": [ 0.0, 0.0, 0.0, 1.0 ],
                    "tricolor": [ 0.75, 0.75, 0.75, 1.0 ],
                    "triscale": 0.9
                }
            },
            {
                "box": {
                    "bgcolor": [ 0.866667, 0.866667, 0.866667, 1.0 ],
                    "fontname": "Arial",
                    "fontsize": 12.0,
                    "format": 6,
                    "htricolor": [ 0.87, 0.82, 0.24, 1.0 ],
                    "id": "obj-19",
                    "maxclass": "flonum",
                    "numinlets": 1,
                    "numoutlets": 2,
                    "outlettype": [ "", "bang" ],
                    "parameter_enable": 0,
                    "patching_rect": [ 343.0, 82.0, 40.0, 22.0 ],
                    "textcolor": [ 0.0, 0.0, 0.0, 1.0 ],
                    "tricolor": [ 0.75, 0.75, 0.75, 1.0 ],
                    "triscale": 0.9
                }
            },
            {
                "box": {
                    "fontname": "Arial",
                    "fontsize": 12.0,
                    "id": "obj-21",
                    "maxclass": "message",
                    "numinlets": 2,
                    "numoutlets": 1,
                    "outlettype": [ "" ],
                    "patching_rect": [ 49.0, 439.21570014953613, 732.0, 22.0 ],
                    "text": "scrollrect 1 0 127 127 -1 0, linesegment 125 $2 126 $1 255 0 0, linesegment 125 $4 126 $3 0 255 0, linesegment 125 $6 126 $5 0 0 255"
                }
            },
            {
                "box": {
                    "fontname": "Arial",
                    "fontsize": 12.0,
                    "id": "obj-22",
                    "maxclass": "newobj",
                    "numinlets": 7,
                    "numoutlets": 1,
                    "outlettype": [ "" ],
                    "patching_rect": [ 26.0, 304.57517302036285, 493.0, 22.0 ],
                    "text": "pack 0 0 0 0 0 0 0"
                }
            },
            {
                "box": {
                    "comment": "To lcd",
                    "id": "obj-26",
                    "index": 1,
                    "maxclass": "outlet",
                    "numinlets": 1,
                    "numoutlets": 0,
                    "patching_rect": [ 49.0, 550.9804095625877, 25.0, 25.0 ]
                }
            },
            {
                "box": {
                    "fontname": "Arial",
                    "fontsize": 12.0,
                    "id": "obj-29",
                    "maxclass": "newobj",
                    "numinlets": 1,
                    "numoutlets": 4,
                    "outlettype": [ "int", "float", "float", "float" ],
                    "patching_rect": [ 27.0, 53.0, 97.0, 22.0 ],
                    "text": "unpack 0 0. 0. 0."
                }
            },
            {
                "box": {
                    "comment": "From motion Data",
                    "id": "obj-30",
                    "index": 1,
                    "maxclass": "inlet",
                    "numinlets": 0,
                    "numoutlets": 1,
                    "outlettype": [ "" ],
                    "patching_rect": [ 27.0, 15.0, 25.0, 25.0 ]
                }
            },
            {
                "box": {
                    "fontname": "Arial Black",
                    "fontsize": 12.0,
                    "id": "obj-31",
                    "maxclass": "comment",
                    "numinlets": 1,
                    "numoutlets": 0,
                    "patching_rect": [ 141.0, 21.0, 150.0, 23.0 ],
                    "text": "Scaled Values (in Gs)"
                }
            }
        ],
        "lines": [
            {
                "patchline": {
                    "destination": [ "obj-22", 0 ],
                    "source": [ "obj-10", 0 ]
                }
            },
            {
                "patchline": {
                    "destination": [ "obj-7", 0 ],
                    "source": [ "obj-10", 2 ]
                }
            },
            {
                "patchline": {
                    "color": [ 1.0, 0.0, 0.0, 1.0 ],
                    "destination": [ "obj-7", 1 ],
                    "midpoints": [ 76.0, 170.5, 128.5, 170.5 ],
                    "source": [ "obj-10", 1 ]
                }
            },
            {
                "patchline": {
                    "destination": [ "obj-8", 0 ],
                    "source": [ "obj-13", 0 ]
                }
            },
            {
                "patchline": {
                    "destination": [ "obj-9", 0 ],
                    "source": [ "obj-14", 0 ]
                }
            },
            {
                "patchline": {
                    "destination": [ "obj-10", 0 ],
                    "source": [ "obj-15", 0 ]
                }
            },
            {
                "patchline": {
                    "destination": [ "obj-15", 0 ],
                    "source": [ "obj-17", 0 ]
                }
            },
            {
                "patchline": {
                    "destination": [ "obj-14", 0 ],
                    "source": [ "obj-18", 0 ]
                }
            },
            {
                "patchline": {
                    "destination": [ "obj-13", 0 ],
                    "source": [ "obj-19", 0 ]
                }
            },
            {
                "patchline": {
                    "destination": [ "obj-26", 0 ],
                    "source": [ "obj-21", 0 ]
                }
            },
            {
                "patchline": {
                    "destination": [ "obj-21", 0 ],
                    "source": [ "obj-22", 0 ]
                }
            },
            {
                "patchline": {
                    "destination": [ "obj-17", 0 ],
                    "source": [ "obj-29", 1 ]
                }
            },
            {
                "patchline": {
                    "destination": [ "obj-18", 0 ],
                    "source": [ "obj-29", 2 ]
                }
            },
            {
                "patchline": {
                    "destination": [ "obj-19", 0 ],
                    "source": [ "obj-29", 3 ]
                }
            },
            {
                "patchline": {
                    "destination": [ "obj-22", 6 ],
                    "source": [ "obj-29", 0 ]
                }
            },
            {
                "patchline": {
                    "destination": [ "obj-29", 0 ],
                    "source": [ "obj-30", 0 ]
                }
            },
            {
                "patchline": {
                    "destination": [ "obj-22", 5 ],
                    "source": [ "obj-5", 0 ]
                }
            },
            {
                "patchline": {
                    "destination": [ "obj-22", 3 ],
                    "source": [ "obj-6", 0 ]
                }
            },
            {
                "patchline": {
                    "destination": [ "obj-22", 1 ],
                    "source": [ "obj-7", 0 ]
                }
            },
            {
                "patchline": {
                    "destination": [ "obj-22", 4 ],
                    "source": [ "obj-8", 0 ]
                }
            },
            {
                "patchline": {
                    "destination": [ "obj-5", 0 ],
                    "source": [ "obj-8", 2 ]
                }
            },
            {
                "patchline": {
                    "color": [ 1.0, 0.0, 0.0, 1.0 ],
                    "destination": [ "obj-5", 1 ],
                    "midpoints": [ 392.0, 170.5, 444.5, 170.5 ],
                    "source": [ "obj-8", 1 ]
                }
            },
            {
                "patchline": {
                    "destination": [ "obj-22", 2 ],
                    "source": [ "obj-9", 0 ]
                }
            },
            {
                "patchline": {
                    "destination": [ "obj-6", 0 ],
                    "source": [ "obj-9", 2 ]
                }
            },
            {
                "patchline": {
                    "color": [ 1.0, 0.0, 0.0, 1.0 ],
                    "destination": [ "obj-6", 1 ],
                    "midpoints": [ 234.0, 170.5, 286.5, 170.5 ],
                    "source": [ "obj-9", 1 ]
                }
            }
        ]
    }
}