{
	"patcher" : 	{
		"fileversion" : 1,
		"appversion" : 		{
			"major" : 8,
			"minor" : 6,
			"revision" : 5,
			"architecture" : "x64",
			"modernui" : 1
		}
,
		"classnamespace" : "box",
		"rect" : [ 34.0, 87.0, 640.0, 480.0 ],
		"bglocked" : 0,
		"openinpresentation" : 0,
		"default_fontsize" : 12.0,
		"default_fontface" : 0,
		"default_fontname" : "Arial",
		"gridonopen" : 1,
		"gridsize" : [ 15.0, 15.0 ],
		"gridsnaponopen" : 1,
		"objectsnaponopen" : 1,
		"statusbarvisible" : 2,
		"toolbarvisible" : 1,
		"lefttoolbarpinned" : 0,
		"toptoolbarpinned" : 0,
		"righttoolbarpinned" : 0,
		"bottomtoolbarpinned" : 0,
		"toolbars_unpinned_last_save" : 0,
		"tallnewobj" : 0,
		"boxanimatetime" : 200,
		"enablehscroll" : 1,
		"enablevscroll" : 1,
		"devicewidth" : 0.0,
		"description" : "",
		"digest" : "",
		"tags" : "",
		"style" : "",
		"subpatcher_template" : "",
		"assistshowspatchername" : 0,
		"boxes" : [ 			{
				"box" : 				{
					"id" : "obj-7",
					"linecount" : 2,
					"maxclass" : "comment",
					"numinlets" : 1,
					"numoutlets" : 0,
					"patching_rect" : [ 108.0, 203.0, 70.0, 33.0 ],
					"style" : "helpfile_label",
					"text" : "imaginary output"
				}

			}
, 			{
				"box" : 				{
					"id" : "obj-12",
					"linecount" : 2,
					"maxclass" : "comment",
					"numinlets" : 1,
					"numoutlets" : 0,
					"patching_rect" : [ 37.0, 203.0, 46.0, 33.0 ],
					"style" : "helpfile_label",
					"text" : "real output"
				}

			}
, 			{
				"box" : 				{
					"id" : "obj-5",
					"linecount" : 2,
					"maxclass" : "comment",
					"numinlets" : 1,
					"numoutlets" : 0,
					"patching_rect" : [ 142.0, 151.0, 70.0, 33.0 ],
					"style" : "helpfile_label",
					"text" : "imaginary input"
				}

			}
, 			{
				"box" : 				{
					"id" : "obj-13",
					"linecount" : 2,
					"maxclass" : "comment",
					"numinlets" : 1,
					"numoutlets" : 0,
					"patching_rect" : [ 37.0, 151.0, 46.0, 33.0 ],
					"style" : "helpfile_label",
					"text" : "real input"
				}

			}
, 			{
				"box" : 				{
					"fontname" : "Arial",
					"fontsize" : 13.0,
					"id" : "obj-19",
					"maxclass" : "newobj",
					"numinlets" : 2,
					"numoutlets" : 1,
					"outlettype" : [ "signal" ],
					"patching_rect" : [ 169.0, 264.0, 50.0, 23.0 ],
					"text" : "/~ 512."
				}

			}
, 			{
				"box" : 				{
					"fontname" : "Arial",
					"fontsize" : 13.0,
					"id" : "obj-20",
					"linecount" : 2,
					"maxclass" : "message",
					"numinlets" : 2,
					"numoutlets" : 1,
					"outlettype" : [ "" ],
					"patching_rect" : [ 175.0, 359.0, 103.0, 38.0 ],
					"text" : "4 128, range 0 10, drawstyle 1"
				}

			}
, 			{
				"box" : 				{
					"fontname" : "Arial",
					"fontsize" : 13.0,
					"id" : "obj-21",
					"maxclass" : "newobj",
					"numinlets" : 2,
					"numoutlets" : 2,
					"outlettype" : [ "signal", "signal" ],
					"patching_rect" : [ 28.0, 264.0, 89.5, 23.0 ],
					"text" : "cartopol~"
				}

			}
, 			{
				"box" : 				{
					"calccount" : 4,
					"id" : "obj-22",
					"maxclass" : "scope~",
					"numinlets" : 2,
					"numoutlets" : 0,
					"patching_rect" : [ 44.0, 472.0, 447.0, 59.0 ],
					"range" : [ 0.0, 10.0 ]
				}

			}
, 			{
				"box" : 				{
					"fontname" : "Arial",
					"fontsize" : 13.0,
					"id" : "obj-29",
					"maxclass" : "newobj",
					"numinlets" : 2,
					"numoutlets" : 3,
					"outlettype" : [ "signal", "signal", "signal" ],
					"patching_rect" : [ 28.0, 184.0, 160.0, 23.0 ],
					"text" : "fft~ 512 512 0"
				}

			}
, 			{
				"box" : 				{
					"calccount" : 16,
					"id" : "obj-41",
					"maxclass" : "scope~",
					"numinlets" : 2,
					"numoutlets" : 0,
					"patching_rect" : [ 168.0, 290.0, 100.0, 50.0 ],
					"range" : [ 0.0, 1.0 ]
				}

			}
, 			{
				"box" : 				{
					"fontname" : "Arial",
					"fontsize" : 13.0,
					"id" : "obj-42",
					"maxclass" : "message",
					"numinlets" : 2,
					"numoutlets" : 1,
					"outlettype" : [ "" ],
					"patching_rect" : [ 229.0, 264.0, 113.0, 23.0 ],
					"text" : "16 128, range 0 1"
				}

			}
, 			{
				"box" : 				{
					"border" : 0,
					"filename" : "helpargs.js",
					"id" : "obj-4",
					"ignoreclick" : 1,
					"jsarguments" : [ "fft~" ],
					"maxclass" : "jsui",
					"numinlets" : 1,
					"numoutlets" : 1,
					"outlettype" : [ "" ],
					"parameter_enable" : 0,
					"patching_rect" : [ 188.0, 184.0, 250.699005126953125, 69.0 ]
				}

			}
, 			{
				"box" : 				{
					"id" : "obj-11",
					"maxclass" : "newobj",
					"numinlets" : 0,
					"numoutlets" : 0,
					"patching_rect" : [ 740.0, 464.0, 18.0, 22.0 ],
					"text" : "c"
				}

			}
, 			{
				"box" : 				{
					"id" : "obj-10",
					"maxclass" : "newobj",
					"numinlets" : 2,
					"numoutlets" : 3,
					"outlettype" : [ "signal", "signal", "signal" ],
					"patching_rect" : [ 571.0, 352.0, 40.0, 22.0 ],
					"text" : "fft~"
				}

			}
, 			{
				"box" : 				{
					"id" : "obj-6",
					"maxclass" : "newobj",
					"numinlets" : 0,
					"numoutlets" : 2,
					"outlettype" : [ "signal", "signal" ],
					"patcher" : 					{
						"fileversion" : 1,
						"appversion" : 						{
							"major" : 8,
							"minor" : 6,
							"revision" : 5,
							"architecture" : "x64",
							"modernui" : 1
						}
,
						"classnamespace" : "box",
						"rect" : [ 0.0, 0.0, 640.0, 480.0 ],
						"bglocked" : 0,
						"openinpresentation" : 0,
						"default_fontsize" : 12.0,
						"default_fontface" : 0,
						"default_fontname" : "Arial",
						"gridonopen" : 1,
						"gridsize" : [ 15.0, 15.0 ],
						"gridsnaponopen" : 1,
						"objectsnaponopen" : 1,
						"statusbarvisible" : 2,
						"toolbarvisible" : 1,
						"lefttoolbarpinned" : 0,
						"toptoolbarpinned" : 0,
						"righttoolbarpinned" : 0,
						"bottomtoolbarpinned" : 0,
						"toolbars_unpinned_last_save" : 0,
						"tallnewobj" : 0,
						"boxanimatetime" : 200,
						"enablehscroll" : 1,
						"enablevscroll" : 1,
						"devicewidth" : 0.0,
						"description" : "",
						"digest" : "",
						"tags" : "",
						"style" : "",
						"subpatcher_template" : "",
						"assistshowspatchername" : 0,
						"boxes" : [ 							{
								"box" : 								{
									"id" : "obj-59",
									"maxclass" : "newobj",
									"numinlets" : 2,
									"numoutlets" : 2,
									"outlettype" : [ "signal", "bang" ],
									"patching_rect" : [ 466.531750078201298, 310.239407322406805, 44.0, 22.0 ],
									"presentation" : 1,
									"presentation_rect" : [ 494.120000000000005, 234.710000000000008, 44.0, 22.0 ],
									"text" : "line~ 5"
								}

							}
, 							{
								"box" : 								{
									"id" : "obj-58",
									"maxclass" : "newobj",
									"numinlets" : 1,
									"numoutlets" : 2,
									"outlettype" : [ "bang", "float" ],
									"patching_rect" : [ 989.470616042613983, 208.308825075626373, 29.5, 22.0 ],
									"presentation" : 1,
									"presentation_rect" : [ 1017.058865964412689, 132.779417753219604, 29.5, 22.0 ],
									"text" : "t b f"
								}

							}
, 							{
								"box" : 								{
									"id" : "obj-57",
									"maxclass" : "newobj",
									"numinlets" : 2,
									"numoutlets" : 1,
									"outlettype" : [ "int" ],
									"patching_rect" : [ 914.7647305727005, 256.117650151252747, 29.5, 22.0 ],
									"presentation" : 1,
									"presentation_rect" : [ 942.352980494499207, 180.588242828845978, 29.5, 22.0 ],
									"text" : "*"
								}

							}
, 							{
								"box" : 								{
									"id" : "obj-56",
									"maxclass" : "live.dial",
									"numinlets" : 1,
									"numoutlets" : 2,
									"outlettype" : [ "", "float" ],
									"parameter_enable" : 1,
									"patching_rect" : [ 989.470616042613983, 134.5, 41.0, 48.0 ],
									"presentation" : 1,
									"presentation_rect" : [ 1017.058865964412689, 58.970592677593231, 41.0, 48.0 ],
									"saved_attribute_attributes" : 									{
										"valueof" : 										{
											"parameter_exponent" : 2.0,
											"parameter_longname" : "live.dial",
											"parameter_mmax" : 512.0,
											"parameter_modmode" : 3,
											"parameter_shortname" : "live.dial",
											"parameter_type" : 0,
											"parameter_unitstyle" : 1
										}

									}
,
									"varname" : "live.dial"
								}

							}
, 							{
								"box" : 								{
									"id" : "obj-43",
									"maxclass" : "newobj",
									"numinlets" : 2,
									"numoutlets" : 1,
									"outlettype" : [ "signal" ],
									"patching_rect" : [ 794.176490247249603, 367.882360696792603, 37.0, 22.0 ],
									"presentation" : 1,
									"presentation_rect" : [ 821.764740169048309, 292.352953374385834, 37.0, 22.0 ],
									"text" : "*~ 10"
								}

							}
, 							{
								"box" : 								{
									"id" : "obj-42",
									"maxclass" : "button",
									"numinlets" : 1,
									"numoutlets" : 1,
									"outlettype" : [ "bang" ],
									"parameter_enable" : 0,
									"patching_rect" : [ 905.352965474128723, 179.647058725357056, 24.0, 24.0 ],
									"presentation" : 1,
									"presentation_rect" : [ 932.941215395927429, 104.117651402950287, 24.0, 24.0 ]
								}

							}
, 							{
								"box" : 								{
									"fontface" : 0,
									"fontname" : "Arial",
									"fontsize" : 12.0,
									"id" : "obj-40",
									"maxclass" : "number~",
									"mode" : 2,
									"numinlets" : 2,
									"numoutlets" : 2,
									"outlettype" : [ "signal", "float" ],
									"patching_rect" : [ 872.411750078201294, 354.349407322406762, 56.0, 22.0 ],
									"presentation" : 1,
									"presentation_rect" : [ 900.0, 278.819999999999993, 56.0, 22.0 ],
									"sig" : 0.0
								}

							}
, 							{
								"box" : 								{
									"id" : "obj-39",
									"maxclass" : "message",
									"numinlets" : 2,
									"numoutlets" : 1,
									"outlettype" : [ "" ],
									"patching_rect" : [ 892.411788463592529, 276.70588630437851, 45.0, 22.0 ],
									"presentation" : 1,
									"presentation_rect" : [ 920.000038385391235, 201.176478981971741, 45.0, 22.0 ],
									"text" : "0, 1 $1"
								}

							}
, 							{
								"box" : 								{
									"id" : "obj-37",
									"maxclass" : "newobj",
									"numinlets" : 2,
									"numoutlets" : 1,
									"outlettype" : [ "int" ],
									"patching_rect" : [ 916.531750078201298, 227.28940732240676, 35.0, 22.0 ],
									"presentation" : 1,
									"presentation_rect" : [ 944.120000000000005, 151.759999999999991, 35.0, 22.0 ],
									"text" : "1000"
								}

							}
, 							{
								"box" : 								{
									"id" : "obj-34",
									"maxclass" : "message",
									"numinlets" : 2,
									"numoutlets" : 1,
									"outlettype" : [ "" ],
									"patching_rect" : [ 827.70590341091156, 262.588238656520844, 29.5, 22.0 ],
									"presentation" : 1,
									"presentation_rect" : [ 855.294153332710266, 187.058831334114075, 29.5, 22.0 ],
									"text" : "0 0"
								}

							}
, 							{
								"box" : 								{
									"id" : "obj-31",
									"maxclass" : "newobj",
									"numinlets" : 1,
									"numoutlets" : 2,
									"outlettype" : [ "bang", "bang" ],
									"patching_rect" : [ 847.117668926715851, 195.0, 32.0, 22.0 ],
									"presentation" : 1,
									"presentation_rect" : [ 874.705918848514557, 119.470592677593231, 32.0, 22.0 ],
									"text" : "t b b"
								}

							}
, 							{
								"box" : 								{
									"id" : "obj-30",
									"maxclass" : "newobj",
									"numinlets" : 2,
									"numoutlets" : 1,
									"outlettype" : [ "signal" ],
									"patching_rect" : [ 737.647054553031921, 778.470613121986389, 29.5, 22.0 ],
									"presentation" : 1,
									"presentation_rect" : [ 765.235304474830627, 702.94120579957962, 29.5, 22.0 ],
									"text" : "*~"
								}

							}
, 							{
								"box" : 								{
									"id" : "obj-29",
									"maxclass" : "newobj",
									"numinlets" : 2,
									"numoutlets" : 1,
									"outlettype" : [ "signal" ],
									"patching_rect" : [ 489.470595180988312, 692.588256597518921, 29.5, 22.0 ],
									"presentation" : 1,
									"presentation_rect" : [ 517.058845102787018, 617.058849275112152, 29.5, 22.0 ],
									"text" : "*~"
								}

							}
, 							{
								"box" : 								{
									"id" : "obj-27",
									"maxclass" : "newobj",
									"numinlets" : 2,
									"numoutlets" : 1,
									"outlettype" : [ "signal" ],
									"patching_rect" : [ 323.0, 665.529431939125061, 32.0, 22.0 ],
									"presentation" : 1,
									"presentation_rect" : [ 350.588249921798706, 590.000024616718292, 32.0, 22.0 ],
									"text" : "/~ 5."
								}

							}
, 							{
								"box" : 								{
									"fontface" : 0,
									"fontname" : "Arial",
									"fontsize" : 12.0,
									"id" : "obj-26",
									"maxclass" : "number~",
									"mode" : 2,
									"numinlets" : 2,
									"numoutlets" : 2,
									"outlettype" : [ "signal", "float" ],
									"patching_rect" : [ 190.0617500782013, 735.529407322406769, 56.0, 22.0 ],
									"presentation" : 1,
									"presentation_rect" : [ 217.650000000000006, 660.0, 56.0, 22.0 ],
									"sig" : 0.0
								}

							}
, 							{
								"box" : 								{
									"id" : "obj-24",
									"maxclass" : "newobj",
									"numinlets" : 5,
									"numoutlets" : 4,
									"outlettype" : [ "signal", "signal", "", "" ],
									"patching_rect" : [ 278.882351100444794, 583.176487326622009, 99.0, 22.0 ],
									"presentation" : 1,
									"presentation_rect" : [ 306.4706010222435, 507.64708000421524, 99.0, 22.0 ],
									"text" : "adsr~ 1000 1 1 1"
								}

							}
, 							{
								"box" : 								{
									"id" : "obj-21",
									"maxclass" : "newobj",
									"numinlets" : 1,
									"numoutlets" : 4,
									"outlettype" : [ "", "", "", "" ],
									"patching_rect" : [ 344.761750078201317, 943.769407322406778, 62.0, 22.0 ],
									"presentation" : 1,
									"presentation_rect" : [ 372.350000000000023, 868.240000000000009, 62.0, 22.0 ],
									"text" : "mc.getattr"
								}

							}
, 							{
								"box" : 								{
									"id" : "obj-20",
									"maxclass" : "newobj",
									"numinlets" : 2,
									"numoutlets" : 2,
									"outlettype" : [ "signal", "bang" ],
									"patching_rect" : [ 794.176490247249603, 304.941181600093842, 34.0, 22.0 ],
									"presentation" : 1,
									"presentation_rect" : [ 821.764740169048309, 229.411774277687073, 34.0, 22.0 ],
									"text" : "line~"
								}

							}
, 							{
								"box" : 								{
									"id" : "obj-13",
									"linecount" : 20,
									"maxclass" : "message",
									"numinlets" : 2,
									"numoutlets" : 1,
									"outlettype" : [ "" ],
									"patching_rect" : [ 1065.411750078201294, 790.529407322406769, 50.0, 277.0 ],
									"presentation" : 1,
									"presentation_linecount" : 20,
									"presentation_rect" : [ 1093.0, 715.0, 50.0, 277.0 ],
									"text" : "/monome/ring/map 3 15 8 2 2 2 2 2 2 2 2 2 2 2 2 2 2 2 2 2 2 2 2 2 2 2 2 2 0 0 0 0 0 0 0 0 0 0 0 2 2 2 2 2 2 2 2 2 2 2 2 2 2 2 2 2 2 2 2 2 2 2 2 2 9"
								}

							}
, 							{
								"box" : 								{
									"id" : "obj-7",
									"maxclass" : "newobj",
									"numinlets" : 2,
									"numoutlets" : 1,
									"outlettype" : [ "signal" ],
									"patching_rect" : [ 1085.411750078201294, 218.529407322406769, 60.0, 22.0 ],
									"presentation" : 1,
									"presentation_rect" : [ 1113.0, 143.0, 60.0, 22.0 ],
									"text" : "cycle~ 39"
								}

							}
, 							{
								"box" : 								{
									"bgmode" : 0,
									"border" : 0,
									"clickthrough" : 0,
									"enablehscroll" : 0,
									"enablevscroll" : 0,
									"extract" : 1,
									"id" : "obj-2",
									"lockeddragscroll" : 0,
									"lockedsize" : 0,
									"maxclass" : "bpatcher",
									"name" : "bp.Keyboard.maxpat",
									"numinlets" : 0,
									"numoutlets" : 4,
									"offset" : [ 0.0, 0.0 ],
									"outlettype" : [ "signal", "signal", "signal", "signal" ],
									"patching_rect" : [ 50.0, 100.0, 578.0, 117.0 ],
									"presentation" : 1,
									"presentation_rect" : [ 227.058833003044128, 24.470592677593231, 578.0, 117.0 ],
									"varname" : "bp.Keyboard",
									"viewvisibility" : 1
								}

							}
, 							{
								"box" : 								{
									"bgmode" : 0,
									"border" : 0,
									"clickthrough" : 0,
									"enablehscroll" : 0,
									"enablevscroll" : 0,
									"extract" : 1,
									"id" : "obj-1",
									"lockeddragscroll" : 0,
									"lockedsize" : 0,
									"maxclass" : "bpatcher",
									"name" : "bp.Granular.maxpat",
									"numinlets" : 4,
									"numoutlets" : 3,
									"offset" : [ 0.0, 0.0 ],
									"outlettype" : [ "signal", "signal", "" ],
									"patching_rect" : [ 493.588242411613464, 427.882363200187683, 541.0, 214.0 ],
									"presentation" : 1,
									"presentation_rect" : [ 521.17649233341217, 352.352955877780914, 541.0, 214.0 ],
									"varname" : "bp.Granular",
									"viewvisibility" : 1
								}

							}
, 							{
								"box" : 								{
									"comment" : "",
									"id" : "obj-4",
									"index" : 1,
									"maxclass" : "outlet",
									"numinlets" : 1,
									"numoutlets" : 0,
									"patching_rect" : [ 489.470588078201331, 1127.529407322406769, 30.0, 30.0 ]
								}

							}
, 							{
								"box" : 								{
									"comment" : "",
									"id" : "obj-5",
									"index" : 2,
									"maxclass" : "outlet",
									"numinlets" : 1,
									"numoutlets" : 0,
									"patching_rect" : [ 737.647041078201255, 1127.529407322406769, 30.0, 30.0 ]
								}

							}
 ],
						"lines" : [ 							{
								"patchline" : 								{
									"destination" : [ "obj-13", 1 ],
									"source" : [ "obj-1", 2 ]
								}

							}
, 							{
								"patchline" : 								{
									"destination" : [ "obj-29", 0 ],
									"disabled" : 1,
									"source" : [ "obj-1", 0 ]
								}

							}
, 							{
								"patchline" : 								{
									"destination" : [ "obj-30", 0 ],
									"disabled" : 1,
									"source" : [ "obj-1", 1 ]
								}

							}
, 							{
								"patchline" : 								{
									"destination" : [ "obj-1", 0 ],
									"disabled" : 1,
									"source" : [ "obj-2", 0 ]
								}

							}
, 							{
								"patchline" : 								{
									"destination" : [ "obj-24", 0 ],
									"disabled" : 1,
									"source" : [ "obj-2", 1 ]
								}

							}
, 							{
								"patchline" : 								{
									"destination" : [ "obj-31", 0 ],
									"source" : [ "obj-20", 1 ]
								}

							}
, 							{
								"patchline" : 								{
									"destination" : [ "obj-40", 0 ],
									"order" : 0,
									"source" : [ "obj-20", 0 ]
								}

							}
, 							{
								"patchline" : 								{
									"destination" : [ "obj-43", 0 ],
									"order" : 1,
									"source" : [ "obj-20", 0 ]
								}

							}
, 							{
								"patchline" : 								{
									"destination" : [ "obj-26", 0 ],
									"order" : 1,
									"source" : [ "obj-24", 0 ]
								}

							}
, 							{
								"patchline" : 								{
									"destination" : [ "obj-27", 0 ],
									"order" : 0,
									"source" : [ "obj-24", 0 ]
								}

							}
, 							{
								"patchline" : 								{
									"destination" : [ "obj-29", 1 ],
									"order" : 1,
									"source" : [ "obj-27", 0 ]
								}

							}
, 							{
								"patchline" : 								{
									"destination" : [ "obj-30", 1 ],
									"order" : 0,
									"source" : [ "obj-27", 0 ]
								}

							}
, 							{
								"patchline" : 								{
									"destination" : [ "obj-4", 0 ],
									"source" : [ "obj-29", 0 ]
								}

							}
, 							{
								"patchline" : 								{
									"destination" : [ "obj-5", 0 ],
									"source" : [ "obj-30", 0 ]
								}

							}
, 							{
								"patchline" : 								{
									"destination" : [ "obj-34", 0 ],
									"disabled" : 1,
									"source" : [ "obj-31", 1 ]
								}

							}
, 							{
								"patchline" : 								{
									"destination" : [ "obj-37", 0 ],
									"source" : [ "obj-31", 0 ]
								}

							}
, 							{
								"patchline" : 								{
									"destination" : [ "obj-20", 0 ],
									"source" : [ "obj-34", 0 ],
									"watchpoint_flags" : 5,
									"watchpoint_id" : 1
								}

							}
, 							{
								"patchline" : 								{
									"destination" : [ "obj-57", 0 ],
									"source" : [ "obj-37", 0 ]
								}

							}
, 							{
								"patchline" : 								{
									"destination" : [ "obj-20", 0 ],
									"source" : [ "obj-39", 0 ],
									"watchpoint_flags" : 5,
									"watchpoint_id" : 2
								}

							}
, 							{
								"patchline" : 								{
									"destination" : [ "obj-31", 0 ],
									"source" : [ "obj-42", 0 ]
								}

							}
, 							{
								"patchline" : 								{
									"destination" : [ "obj-1", 2 ],
									"disabled" : 1,
									"source" : [ "obj-43", 0 ]
								}

							}
, 							{
								"patchline" : 								{
									"destination" : [ "obj-58", 0 ],
									"source" : [ "obj-56", 0 ]
								}

							}
, 							{
								"patchline" : 								{
									"destination" : [ "obj-39", 0 ],
									"source" : [ "obj-57", 0 ]
								}

							}
, 							{
								"patchline" : 								{
									"destination" : [ "obj-37", 0 ],
									"source" : [ "obj-58", 0 ]
								}

							}
, 							{
								"patchline" : 								{
									"destination" : [ "obj-57", 1 ],
									"source" : [ "obj-58", 1 ]
								}

							}
, 							{
								"patchline" : 								{
									"destination" : [ "obj-27", 0 ],
									"source" : [ "obj-59", 0 ]
								}

							}
, 							{
								"patchline" : 								{
									"destination" : [ "obj-1", 3 ],
									"source" : [ "obj-7", 0 ]
								}

							}
 ]
					}
,
					"patching_rect" : [ 77.588250000000002, 24.470593000000001, 93.0, 22.0 ],
					"saved_object_attributes" : 					{
						"description" : "",
						"digest" : "",
						"globalpatchername" : "",
						"tags" : ""
					}
,
					"text" : "p beap-granular",
					"varname" : "patcher"
				}

			}
, 			{
				"box" : 				{
					"id" : "obj-53",
					"maxclass" : "ezdac~",
					"numinlets" : 2,
					"numoutlets" : 0,
					"patching_rect" : [ 1054.0, 380.0, 45.0, 45.0 ],
					"presentation" : 1,
					"presentation_rect" : [ 1296.470000000000027, 279.410000000000025, 45.0, 45.0 ]
				}

			}
, 			{
				"box" : 				{
					"basictuning" : 440,
					"clipheight" : 96.0,
					"data" : 					{
						"clips" : [ 							{
								"absolutepath" : "/Users/dpoz/Library/CloudStorage/OneDrive-Personal/Art/jukebox/archive-lights-p1.wav",
								"filename" : "archive-lights-p1.wav",
								"filekind" : "audiofile",
								"id" : "u674002434",
								"selection" : [ 0.293139293139293, 0.453222453222453 ],
								"loop" : 1,
								"content_state" : 								{
									"loop" : 1
								}

							}
 ]
					}
,
					"followglobaltempo" : 0,
					"formantcorrection" : 0,
					"id" : "obj-16",
					"maxclass" : "playlist~",
					"mode" : "basic",
					"numinlets" : 1,
					"numoutlets" : 5,
					"originallength" : [ 0.0, "ticks" ],
					"originaltempo" : 120.0,
					"outlettype" : [ "signal", "signal", "signal", "", "dictionary" ],
					"parameter_enable" : 0,
					"patching_rect" : [ 894.0, 120.0, 536.0, 96.0 ],
					"pitchcorrection" : 0,
					"presentation" : 1,
					"presentation_rect" : [ 1300.0, 123.0, 150.0, 92.0 ],
					"quality" : "basic",
					"timestretch" : [ 0 ]
				}

			}
, 			{
				"box" : 				{
					"id" : "obj-3",
					"maxclass" : "ezdac~",
					"numinlets" : 2,
					"numoutlets" : 0,
					"patching_rect" : [ 338.0, 888.0, 45.0, 45.0 ],
					"presentation" : 1,
					"presentation_rect" : [ 494.705902993679047, 958.235334098339081, 45.0, 45.0 ]
				}

			}
 ],
		"lines" : [ 			{
				"patchline" : 				{
					"destination" : [ "obj-29", 0 ],
					"order" : 0,
					"source" : [ "obj-16", 0 ]
				}

			}
, 			{
				"patchline" : 				{
					"destination" : [ "obj-53", 1 ],
					"source" : [ "obj-16", 1 ]
				}

			}
, 			{
				"patchline" : 				{
					"destination" : [ "obj-53", 0 ],
					"order" : 1,
					"source" : [ "obj-16", 0 ]
				}

			}
, 			{
				"patchline" : 				{
					"destination" : [ "obj-41", 0 ],
					"source" : [ "obj-19", 0 ]
				}

			}
, 			{
				"patchline" : 				{
					"destination" : [ "obj-22", 0 ],
					"source" : [ "obj-20", 0 ]
				}

			}
, 			{
				"patchline" : 				{
					"destination" : [ "obj-22", 0 ],
					"source" : [ "obj-21", 0 ]
				}

			}
, 			{
				"patchline" : 				{
					"destination" : [ "obj-19", 0 ],
					"source" : [ "obj-29", 2 ]
				}

			}
, 			{
				"patchline" : 				{
					"destination" : [ "obj-21", 1 ],
					"source" : [ "obj-29", 1 ]
				}

			}
, 			{
				"patchline" : 				{
					"destination" : [ "obj-21", 0 ],
					"source" : [ "obj-29", 0 ]
				}

			}
, 			{
				"patchline" : 				{
					"destination" : [ "obj-41", 0 ],
					"source" : [ "obj-42", 0 ]
				}

			}
 ],
		"parameters" : 		{
			"obj-6::obj-1::obj-101" : [ "Width", "Width", 0 ],
			"obj-6::obj-1::obj-114" : [ "MaxGrains", "MaxGrains", 0 ],
			"obj-6::obj-1::obj-115" : [ "NewGrainEvery", "NewGrainEvery", 0 ],
			"obj-6::obj-1::obj-12" : [ "Mute", "Mute", 0 ],
			"obj-6::obj-1::obj-141" : [ "live.button", "live.button", 0 ],
			"obj-6::obj-1::obj-19" : [ "CV2", "CV2", 0 ],
			"obj-6::obj-1::obj-25" : [ "CV", "CV", 0 ],
			"obj-6::obj-1::obj-28" : [ "Offset", "Offset", 0 ],
			"obj-6::obj-1::obj-3" : [ "Position", "Position", 0 ],
			"obj-6::obj-1::obj-45" : [ "DurationRandomAmt", "Random", 0 ],
			"obj-6::obj-1::obj-47" : [ "Duration", "Duration", 0 ],
			"obj-6::obj-1::obj-58" : [ "PanRandomAmt", "Random", 0 ],
			"obj-6::obj-1::obj-71" : [ "Pan", "Pan", 0 ],
			"obj-6::obj-1::obj-94" : [ "PitchRandomAmt", "Random", 0 ],
			"obj-6::obj-1::obj-98::obj-2" : [ "pastebang", "pastebang", 0 ],
			"obj-6::obj-2::obj-12" : [ "KeyboardMode", "KeyboardMode", 0 ],
			"obj-6::obj-2::obj-15::obj-2" : [ "pastebang[1]", "pastebang", 0 ],
			"obj-6::obj-2::obj-48" : [ "live.text", "live.text", 0 ],
			"obj-6::obj-2::obj-5" : [ "Octave", "Octave", 0 ],
			"obj-6::obj-2::obj-52" : [ "octave", "octave", 0 ],
			"obj-6::obj-2::obj-68" : [ "RepeatInterval", "RepeatInterval", 0 ],
			"obj-6::obj-2::obj-71" : [ "velocity", "velocity", 0 ],
			"obj-6::obj-56" : [ "live.dial", "live.dial", 0 ],
			"parameterbanks" : 			{
				"0" : 				{
					"index" : 0,
					"name" : "",
					"parameters" : [ "-", "-", "-", "-", "-", "-", "-", "-" ]
				}

			}
,
			"parameter_overrides" : 			{
				"obj-6::obj-2::obj-15::obj-2" : 				{
					"parameter_longname" : "pastebang[1]"
				}

			}
,
			"inherited_shortname" : 1
		}
,
		"parameter_map" : 		{
			"midi" : 			{
				"live.dial" : 				{
					"srcname" : "16.ctrl.0.chan.midi",
					"min" : 0.0,
					"max" : 512.0,
					"scale" : 3.0,
					"flags" : 2
				}
,
				"Width" : 				{
					"srcname" : "17.ctrl.0.chan.midi",
					"min" : 0.0,
					"max" : 5.0,
					"flags" : 2
				}
,
				"Duration" : 				{
					"srcname" : "18.ctrl.0.chan.midi",
					"min" : 0.0,
					"max" : 500.0,
					"flags" : 2
				}
,
				"NewGrainEvery" : 				{
					"srcname" : "0.ctrl.0.chan.midi",
					"min" : 1.0,
					"max" : 100.0,
					"flags" : 2
				}
,
				"MaxGrains" : 				{
					"srcname" : "1.ctrl.0.chan.midi",
					"min" : 8.0,
					"max" : 96.0,
					"flags" : 2
				}

			}

		}
,
		"dependency_cache" : [ 			{
				"name" : "archive-lights-p1.wav",
				"bootpath" : "~/Library/CloudStorage/OneDrive-Personal/Art/jukebox",
				"patcherrelativepath" : "../../Library/CloudStorage/OneDrive-Personal/Art/jukebox",
				"type" : "WAVE",
				"implicit" : 1
			}
, 			{
				"name" : "background_sm.maxpat",
				"bootpath" : "C74:/packages/BEAP/misc",
				"type" : "JSON",
				"implicit" : 1
			}
, 			{
				"name" : "bp.Granular.maxpat",
				"bootpath" : "C74:/packages/BEAP/clippings/BEAP/Oscillator",
				"type" : "JSON",
				"implicit" : 1
			}
, 			{
				"name" : "bp.Keyboard.maxpat",
				"bootpath" : "C74:/packages/BEAP/clippings/BEAP/Input",
				"type" : "JSON",
				"implicit" : 1
			}
, 			{
				"name" : "bp.arc.accum-2.maxpat",
				"bootpath" : "C74:/packages/BEAP/misc",
				"type" : "JSON",
				"implicit" : 1
			}
, 			{
				"name" : "bp.arc.knob.maxpat",
				"bootpath" : "C74:/packages/BEAP/misc",
				"type" : "JSON",
				"implicit" : 1
			}
, 			{
				"name" : "bp.rgrain.maxpat",
				"bootpath" : "C74:/packages/BEAP/misc",
				"type" : "JSON",
				"implicit" : 1
			}
, 			{
				"name" : "helpargs.js",
				"bootpath" : "C74:/help/resources",
				"type" : "TEXT",
				"implicit" : 1
			}
, 			{
				"name" : "pastebang.maxpat",
				"bootpath" : "C74:/packages/BEAP/misc",
				"type" : "JSON",
				"implicit" : 1
			}
, 			{
				"name" : "rchoose.maxpat",
				"bootpath" : "~/Library/Application Support/Cycling '74/Max 8/Examples/sampling/granular/lib",
				"patcherrelativepath" : "../../Library/Application Support/Cycling '74/Max 8/Examples/sampling/granular/lib",
				"type" : "JSON",
				"implicit" : 1
			}
, 			{
				"name" : "rchoosef.maxpat",
				"bootpath" : "C74:/packages/BEAP/misc",
				"type" : "JSON",
				"implicit" : 1
			}
, 			{
				"name" : "transratio.maxpat",
				"bootpath" : "~/Library/Application Support/Cycling '74/Max 8/Examples/max-tricks/notes-and-pitch/pitch-to-freq-ratio",
				"patcherrelativepath" : "../../Library/Application Support/Cycling '74/Max 8/Examples/max-tricks/notes-and-pitch/pitch-to-freq-ratio",
				"type" : "JSON",
				"implicit" : 1
			}
 ],
		"autosave" : 0,
		"toolbaradditions" : [ "audiomute" ]
	}

}
